/* XPM */
static char * toolbox_closed_xpm[] = {
"18 17 4 1",
" 	c none",
".	c #777777",
"+	c #999999",
"@	c #bbbbbb",
"                  ",
"                  ",
"                  ",
"                  ",
"       ....       ",
"      ..  ..      ",
"   ............   ",
"  .++++++++++++.  ",
" .++++++++++++++. ",
" ................ ",
" .++++@@@@@@++++. ",
" .+++@@++++@@+++. ",
" .++++++++++++++. ",
" .++++++++++++++. ",
" ................ ",
"                  ",
"                  "};
