/* XPM */
static char * toolbox_open_xpm[] = {
"18 17 5 1",
" 	c none",
"z	c #EBE9ED",
".	c #A7A6AA",
"+	c #000000",
"@	c #FF0000",
"                  ",
"      ......      ",
"  ++++++++++++++  ",
" +@@@@@@@@@@@@@@+ ",
" +zzzzzzzzzzzzzz+ ",
"  +zzzzzzzzzzzz+  ",
"   ++++++++++++   ",
"  +zzzzzzzzzzzz+  ",
" +zzzzzzzzzzzzzz+ ",
" ++++++++++++++++ ",
" +@@@@......@@@@+ ",
" +@@@..@@@@..@@@+ ",
" +@@@@@@@@@@@@@@+ ",
" +@@@@@@@@@@@@@@+ ",
" ++++++++++++++++ ",
"                  ",
"                  "};
